<?xml version="1.0" encoding="utf-8"?>
<!-- Generator: Adobe Illustrator 27.5.0, SVG Export Plug-In . SVG Version: 6.00 Build 0)  -->
<svg version="1.1" id="Layer_1" xmlns="http://www.w3.org/2000/svg" xmlns:xlink="http://www.w3.org/1999/xlink" x="0px" y="0px"
	 viewBox="0 0 500 500" style="enable-background:new 0 0 500 500;" xml:space="preserve">
<style type="text/css">
	.st0{fill:#FF4713;}
	.st1{fill:#FFFFFF;}
</style>
<g id="monster_00000182527077904644478270000010584381633741570969_">
	<g id="color_00000158714508662000101300000009585088065066727351_">
		<path class="st0" d="M363.3,178.2c-22.1-9.2-43.1-18.1-64.3-26.3c-2.7-1.1-7,0.7-10.1,2.2c-4.9,2.4-9.1,6.6-14.2,8.3
			c-7.8,2.6-10.8,6.6-11.9,15.1c-0.7,5-7.8,12.2-12.8,12.9c-14.4,2-29.6,3.2-43.9,1c-29.7-4.7-55.2-18.8-75.2-41.7
			C106,121,104.4,82,128.2,53c27.3-33.1,63.2-48.9,106.1-47.6c23.3,0.7,27.8,5.6,30.3,28c32.1,12.1,50.2,34.2,50.5,69.8
			c0,3.1,4.5,7.6,7.9,9.1c29.6,12.6,59.4,24.7,89.2,36.9c3.9,1.6,7.7,3.4,12.6,5.6c-4,8.4-7.6,16.4-11.4,24.2
			c-14.7,30.1-29.6,60-43.9,90.2c-1.9,4-2,9.4-1.4,14c2.6,19.1,7.2,38.1,8.2,57.2c1.1,21-2.2,42.3-1.3,63.4
			c1,23.2,11.1,30.2,34,28.5c8.8-0.7,18.2-1.3,26.4,1.2c7.2,2.1,17.5,7.7,18.6,13.3c1.1,5.8-5.7,15.6-11.7,19.8
			c-9.5,6.7-20.8,12.6-32,14.6c-33.3,5.7-66.9,12.8-100.4,13c-69,0.5-138-2.9-207-5.5c-11.6-0.4-23.4-4-34.4-8.1
			c-14.1-5.3-16.1-15-6.7-26.9c10.5-13.2,25.9-17.5,41.4-20c11-1.7,16.4-6.3,20.2-16.9c15.1-41.6,34.8-80.9,63.9-114.8
			c35.4-41.2,78.1-64.4,134.5-53c2.8,0.6,8.1-3.4,9.8-6.5C342.4,221.9,352.3,200.9,363.3,178.2z"/>
		<path class="st0" d="M220.1,100.3c-0.4,0-0.9,0-1.3,0c0-11,0.8-22-0.2-32.9c-1.7-20-14.2-28-33.6-22.2
			c-25.7,7.6-44.2,31.5-43.4,56c0.8,24.3,20.9,47.2,46.9,53.4c16.3,3.9,27.7-3.4,29.8-20.1C219.6,123.2,219.5,111.7,220.1,100.3z"/>
		<path class="st0" d="M151.6,436.1c-1.9-4.8-3.5-9.9-6.1-14.3c-0.4-0.6-6.3,0.8-8.6,2.7c-10.9,8.6-14.5,31.9-6.7,43.3
			c1.7,2.5,5.2,5.6,7.7,5.4c2.4-0.2,5.8-3.9,6.6-6.6C147.3,456.8,149.2,446.8,151.6,436.1z"/>
		<path class="st0" d="M222.9,382.9c-1.8-4.7-3.6-10.1-6.2-14.9c-0.3-0.5-6.3,1-8.6,2.9c-10.6,8.6-14.2,31.5-6.8,42.9
			c1.7,2.6,4.9,5.7,7.4,5.7c2.4,0,6-3.5,6.8-6.1C218.4,403.8,220.3,394,222.9,382.9z"/>
		<path class="st0" d="M297.6,447.1c1.1,7.1,1.1,11.9,2.6,16.2c2.9,8.2,9.1,9.6,13.8,2.6c8.2-12,11-25.6,5.9-39.6
			c-3-8.4-9.4-9.1-13.8-1.5C301.9,432.2,299.9,440.9,297.6,447.1z"/>
		<path class="st0" d="M363.9,374.9c-4.6-7.1-8.3-12.6-11.9-18.1c-4.4,5-11.7,9.6-12.6,15.2c-1.4,8.9,1.2,18.5,2.8,27.7
			c0.1,0.8,6.8,1.9,7.4,1C354.5,392.7,358.7,384.4,363.9,374.9z"/>
		<path class="st0" d="M260.3,437.1c-3-4.8-6.4-10.2-9.8-15.5c-4.5,4.8-10.7,8.9-13.2,14.6c-2.5,5.8-2.2,13.3-1.2,19.8
			c0.6,3.8,4.9,7,7.5,10.4c3.5-2.6,8.3-4.6,10.1-8.1C256.7,452.4,257.8,445.6,260.3,437.1z"/>
		<path class="st0" d="M155.1,387.9c6.7,6.7,10.4,13.7,14.8,14.2c9.4,1,13.5-7.2,12.5-15.2c-0.7-5.1-6-9.6-9.3-14.4
			C167.9,376.9,162.7,381.4,155.1,387.9z"/>
		<path class="st0" d="M263.8,361.2c-6.8-6.5-10.6-13.5-15-13.8c-9.3-0.7-13.3,7.9-12.3,15.6c0.6,5,6.4,9.4,9.9,14
			C251.4,372.6,256.4,368,263.8,361.2z"/>
		<path class="st0" d="M265.7,383.7c6.8,6.3,10.8,13,15.1,13.3c9.5,0.6,13-8.1,11.9-15.8c-0.7-5-6.4-9.3-9.8-13.9
			C278,372,273,376.7,265.7,383.7z"/>
		<path class="st0" d="M223,336.4c-7.7-5.9-12.2-11.9-16.6-11.9c-3.8,0-10.7,7-10.5,10.7c0.2,4.6,5.8,11.9,9.9,12.5
			C209.8,348.3,214.9,342,223,336.4z"/>
		<path class="st0" d="M194.5,428.2c-6.9-5.7-11.7-12.4-14.9-11.8c-4.7,1-11.2,7.1-11.5,11.4c-0.2,4,6.3,11.5,10.4,11.9
			C182.6,440.1,187.4,433.6,194.5,428.2z"/>
		<path class="st0" d="M367.3,464.5c5.5-8.2,11-12.8,10.9-17.3c0-4-6.3-7.9-9.9-11.8c-4,4-10.3,7.5-11.3,12.1
			C356.2,451.1,362,456.1,367.3,464.5z"/>
		<path class="st0" d="M317.3,381.6c4.4-5.5,7.1-8.9,9.9-12.4c-4-3-7.8-8-12.1-8.4c-3-0.4-6.8,5.3-10.2,8.3
			C308.3,372.5,311.8,376,317.3,381.6z"/>
		<path class="st0" d="M277.7,436.7c-4.9,5.2-8,8.4-11.1,11.7c3.8,3.3,7.2,8.6,11.4,9.2c3.2,0.5,7.3-4.9,11-7.6
			C285.9,446.3,282.7,442.6,277.7,436.7z"/>
		<path class="st0" d="M340.6,415.8c-4.5,5.4-7.3,8.8-10.1,12.2c4,3,7.8,7.9,12,8.4c3.1,0.4,6.9-5.1,10.3-8
			C349.4,424.8,346,421.3,340.6,415.8z"/>
		<path class="st0" d="M210.8,468.8c4.4-5.3,7.2-8.7,10-12.1c-3.9-3-7.6-8-11.8-8.4c-3.2-0.3-6.9,5.1-10.4,7.9
			C202,459.7,205.5,463.2,210.8,468.8z"/>
		<path class="st0" d="M187,57.1c11-1.9,19.3,4.3,20.3,15.7c1.6,17.5,1.9,35.3,0.1,52.7c-1.6,14.8-13.1,19.9-27.3,15
			c-20.1-7-31.3-27.2-27.3-49.2c11.5,15.5,20.8,14.6,27.9-3.7C184.1,78.5,184.7,68.4,187,57.1z"/>
		<path class="st0" d="M203,112.3c-5-4.2-8.5-7.1-12-10c-1.9,2.9-5.9,6.5-5.2,8.4c1.3,3.8,5.3,6.6,8.1,9.9
			C196.4,118.4,198.8,116.2,203,112.3z"/>
	</g>
	<g id="white_00000129206876558311789810000012303664154916531618_">
		<path class="st1" d="M220.1,100.3c-0.6,11.4-0.5,22.8-1.9,34.1c-2.1,16.7-13.5,24-29.8,20.1c-25.9-6.2-46.1-29.1-46.9-53.4
			c-0.8-24.5,17.7-48.4,43.4-56c19.4-5.7,31.9,2.2,33.6,22.2c0.9,10.9,0.2,21.9,0.2,32.9C219.2,100.3,219.7,100.3,220.1,100.3z
			 M187,57.1c-2.2,11.3-2.9,21.4-6.4,30.4c-7,18.3-16.4,19.2-27.9,3.7c-4,22,7.2,42.3,27.3,49.2c14.2,4.9,25.7-0.2,27.3-15
			c1.9-17.4,1.5-35.3-0.1-52.7C206.2,61.4,198,55.2,187,57.1z"/>
		<path class="st1" d="M151.6,436.1c-2.4,10.7-4.3,20.7-7.1,30.4c-0.8,2.8-4.1,6.4-6.6,6.6c-2.4,0.2-5.9-2.9-7.7-5.4
			c-7.8-11.4-4.2-34.6,6.7-43.3c2.3-1.8,8.2-3.3,8.6-2.7C148.1,426.2,149.7,431.3,151.6,436.1z"/>
		<path class="st1" d="M222.9,382.9c-2.6,11.1-4.5,21-7.4,30.5c-0.8,2.6-4.4,6.1-6.8,6.1c-2.5,0-5.7-3.1-7.4-5.7
			c-7.5-11.5-3.9-34.4,6.8-42.9c2.3-1.9,8.3-3.4,8.6-2.9C219.3,372.8,221.1,378.1,222.9,382.9z"/>
		<path class="st1" d="M297.6,447.1c2.3-6.2,4.3-14.9,8.6-22.3c4.3-7.5,10.7-6.8,13.8,1.5c5.1,14,2.3,27.5-5.9,39.6
			c-4.7,7-11,5.6-13.8-2.6C298.8,459,298.7,454.2,297.6,447.1z"/>
		<path class="st1" d="M363.9,374.9c-5.1,9.5-9.4,17.8-14.3,25.7c-0.6,0.9-7.3-0.2-7.4-1c-1.6-9.2-4.2-18.8-2.8-27.7
			c0.9-5.6,8.2-10.1,12.6-15.2C355.6,362.3,359.2,367.8,363.9,374.9z"/>
		<path class="st1" d="M260.3,437.1c-2.5,8.5-3.6,15.3-6.6,21.2c-1.8,3.5-6.6,5.5-10.1,8.1c-2.6-3.5-6.9-6.6-7.5-10.4
			c-1-6.5-1.2-14,1.2-19.8c2.4-5.7,8.6-9.8,13.2-14.6C253.9,426.9,257.3,432.3,260.3,437.1z"/>
		<path class="st1" d="M155.1,387.9c7.6-6.5,12.8-11,17.9-15.4c3.3,4.8,8.6,9.3,9.3,14.4c1.1,8-3.1,16.2-12.5,15.2
			C165.5,401.6,161.8,394.6,155.1,387.9z"/>
		<path class="st1" d="M263.8,361.2c-7.4,6.8-12.4,11.3-17.4,15.9c-3.5-4.6-9.2-9-9.9-14c-1-7.8,3-16.3,12.3-15.6
			C253.2,347.8,257,354.7,263.8,361.2z"/>
		<path class="st1" d="M265.7,383.7c7.4-7,12.3-11.7,17.2-16.4c3.4,4.6,9.1,8.9,9.8,13.9c1.1,7.7-2.5,16.4-11.9,15.8
			C276.5,396.7,272.5,390,265.7,383.7z"/>
		<path class="st1" d="M223,336.4c-8.1,5.7-13.2,11.9-17.3,11.3c-4.1-0.6-9.7-7.9-9.9-12.5c-0.2-3.6,6.8-10.7,10.5-10.7
			C210.9,324.5,215.3,330.5,223,336.4z"/>
		<path class="st1" d="M194.5,428.2c-7.1,5.5-11.9,11.9-16,11.5c-4.1-0.4-10.6-7.9-10.4-11.9c0.2-4.2,6.8-10.4,11.5-11.4
			C182.8,415.7,187.6,422.4,194.5,428.2z"/>
		<path class="st1" d="M367.3,464.5c-5.4-8.4-11.1-13.4-10.3-17c1-4.6,7.3-8.1,11.3-12.1c3.5,3.9,9.8,7.8,9.9,11.8
			C378.3,451.7,372.8,456.4,367.3,464.5z"/>
		<path class="st1" d="M317.3,381.6c-5.5-5.5-8.9-9-12.4-12.5c3.4-3,7.2-8.6,10.2-8.3c4.3,0.5,8.1,5.4,12.1,8.4
			C324.4,372.7,321.7,376.1,317.3,381.6z"/>
		<path class="st1" d="M277.7,436.7c5,5.8,8.1,9.6,11.3,13.3c-3.7,2.8-7.8,8.1-11,7.6c-4.2-0.7-7.6-6-11.4-9.2
			C269.7,445.2,272.8,441.9,277.7,436.7z"/>
		<path class="st1" d="M340.6,415.8c5.4,5.5,8.8,9,12.2,12.5c-3.5,2.9-7.2,8.4-10.3,8c-4.3-0.5-8-5.4-12-8.4
			C333.3,424.6,336.1,421.2,340.6,415.8z"/>
		<path class="st1" d="M210.8,468.8c-5.3-5.5-8.8-9.1-12.2-12.6c3.5-2.9,7.3-8.3,10.4-7.9c4.2,0.5,7.9,5.4,11.8,8.4
			C218,460,215.2,463.5,210.8,468.8z"/>
		<path class="st1" d="M203,112.3c-4.2,3.9-6.6,6.1-9.1,8.3c-2.9-3.2-6.8-6.1-8.1-9.9c-0.7-2,3.3-5.6,5.2-8.4
			C194.5,105.2,198,108.1,203,112.3z"/>
	</g>
</g>
</svg>
