<?xml version="1.0" encoding="utf-8"?>
<!-- Generator: Adobe Illustrator 27.5.0, SVG Export Plug-In . SVG Version: 6.00 Build 0)  -->
<svg version="1.1" id="Layer_1" xmlns="http://www.w3.org/2000/svg" xmlns:xlink="http://www.w3.org/1999/xlink" x="0px" y="0px"
	 viewBox="0 0 500 500" style="enable-background:new 0 0 500 500;" xml:space="preserve">
<style type="text/css">
	.st0{fill:#FFFFFF;}
</style>
<g id="monster_00000032645910453228686820000007566214112893095572_">
	<g id="white_00000129891986165433253080000014665736654775010484_">
		<path class="st0" d="M247.66,318.86c56.85,16.28,104.79,6.88,141.15-41.06c15.53,18.33,5.9,56.97-7.43,73.71
			c-19.17,24.07-51.17,35.46-80.53,27.49C272.37,371.28,250.85,347.49,247.66,318.86z"/>
		<path class="st0" d="M255.78,139.52c0,5.98,0.24,11.97-0.04,17.93c-1.15,24.3-14.77,31.73-35.81,19.1
			c-14.11-8.47-23.53-20.55-22.78-37.95c0.78-18.05,11.33-29.75,26.86-37.21c18.74-9.01,30.13-2.28,31.59,18.42
			c0.46,6.54,0.07,13.15,0.07,19.72C255.7,139.52,255.74,139.52,255.78,139.52z M204.51,136.99c-0.03,17.74,7.38,29.22,22.04,33.22
			c5.39,1.47,17.95-3.77,18.41-7.14c2.05-15.15,1.72-30.8,0.38-46.1c-0.32-3.65-7.84-6.66-13.23-10.9
			C227.05,139.3,222.38,144.42,204.51,136.99z"/>
	</g>
	<g id="color_00000037658850570643091690000007518708215730057916_">
		<path d="M405.05,252.37c6.32,0.56,11.62,1.04,18.62,1.66c17.51-46.7,31.36-93.32,15.59-143.73c-6.49-20.74-16.29-37.02-43.4-35.19
			c0.53-1.6,1.06-3.2,1.59-4.8c4.86-2.37,9.73-4.74,15.92-7.76c-4.29-7.55-9.57-14.83-12.66-22.95c-2.34-6.17-1.88-13.41-2.67-20.17
			c6.93,0.02,14.97-2.2,20.57,0.55c11.16,5.47,22.61,12.12,31.1,21c40.89,42.73,49.69,94.58,33.78,149.27
			c-9.06,31.13-26.21,59.91-40.66,91.82c13.84,17.35,13.94,25-2.97,45.13c13.57,13.9,18.94,28.76,2.67,44.76
			c-1.54,1.51-2.74,3.97-2.97,6.11c-2.14,19.47-2.07,19.48-17.31,27.02c0,8.29-0.05,17.29,0.04,26.29c0.02,2.34,0.49,4.68,0.77,7.08
			c24.82,5.36,49.3,10.66,73.77,15.95c-0.27,2.62-0.54,5.24-0.8,7.85c-35.41,18.09-74.52,14.72-116.21,18.4c0-24.75,0-47.77,0-68.87
			c-33.43,0-63.4,0-96.47,0c0,21.35,0,43.84,0,68.21c-41.73-1.89-80.48-0.91-116.95-19.6c21.29-17.27,47.88-14.9,73.3-20.53
			c-1.81-15.78,7.38-32.14-13.18-44.02c-8.53-4.92-13.36-20.04-15.39-31.32c-1.96-10.93,1.83-22.89,3.57-38.77
			c-11.14-11-10.05-27.33,3.22-43.97c-51.78-48.15-103.43-95.2-165.88-128.04c-8.64-4.54-20.1-3.73-26.48-4.78
			c-4.34-7.66-7.7-13.68-11.14-19.66c-3.65-6.35-7.37-12.66-11.05-18.98c6.98-2.66,14.79-8.8,20.8-7.37
			c23.12,5.52,47.41,10.16,68.08,21.13c52.48,27.85,93.59,69.28,127.36,117.99c3.38,4.87,6.72,9.76,8.18,11.88
			c12.46-4.11,23.26-7.22,33.67-11.35c3.92-1.55,6.87-5.5,10.32-8.28c5.98-4.82,12.09-13.75,17.99-13.62
			c23.1,0.51,45.17-6.37,68.04-8.84c1.06-19.16-9.13-37.31-28.6-51.25c-11.8,9.77-23.02,19.06-34.24,28.35
			c-1.36,1.13-3.67,2.04-3.97,3.4c-5.77,25.64-25.86,19.48-42.08,17.54c-44.79-5.35-77.18-39.69-73.9-76.33
			c2.83-31.67,39.46-61.96,79.44-64.28c14.8-0.86,32.97-5.06,36.05,18.7c0.26,1.98,4.36,3.53,6.78,5.14c4.49,3,10,5.05,13.42,8.96
			c19.63,22.44,38.83,45.26,58.02,68.09c2.28,2.72,3.8,6.14,5.36,9.39c9.39,19.6,4.03,46.04,27.88,59.19
			C404.33,240.06,403.85,246.59,405.05,252.37z M247.66,318.86c3.2,28.63,24.71,52.42,53.19,60.15
			c29.36,7.97,61.37-3.42,80.53-27.49c13.33-16.74,22.96-55.39,7.43-73.71C352.45,325.74,304.51,335.14,247.66,318.86z
			 M255.78,139.52c-0.04,0-0.08,0-0.11,0c0-6.58,0.39-13.18-0.07-19.72c-1.46-20.7-12.85-27.43-31.59-18.42
			c-15.53,7.47-26.08,19.17-26.86,37.21c-0.75,17.41,8.67,29.49,22.78,37.95c21.04,12.63,34.66,5.21,35.81-19.1
			C256.02,151.49,255.78,145.5,255.78,139.52z"/>
		<path d="M204.51,136.99c17.87,7.43,22.54,2.31,27.6-30.92c5.39,4.23,12.91,7.25,13.23,10.9c1.34,15.31,1.68,30.95-0.38,46.1
			c-0.46,3.37-13.02,8.61-18.41,7.14C211.89,166.21,204.48,154.73,204.51,136.99z"/>
	</g>
</g>
</svg>
