<?xml version="1.0" encoding="utf-8"?>
<!-- Generator: Adobe Illustrator 27.5.0, SVG Export Plug-In . SVG Version: 6.00 Build 0)  -->
<svg version="1.1" id="Layer_1" xmlns="http://www.w3.org/2000/svg" xmlns:xlink="http://www.w3.org/1999/xlink" x="0px" y="0px"
	 viewBox="0 0 500 500" style="enable-background:new 0 0 500 500;" xml:space="preserve">
<style type="text/css">
	.st0{fill:#FFFFFF;}
</style>
<g id="monster_00000141413790814121494190000006969573671820495016_">
	<g id="white_00000131330800486774310680000002165379742348805539_">
		<path class="st0" d="M252.89,353.33c-48.15-0.55-88.88-27.86-101.22-67.88c-8.36-27.11-2.99-40.54,23.57-49.15
			c52.26-16.94,105.23-17.08,157.47,0.07c26.67,8.76,31.92,22.09,23.45,49.26C343.53,326.15,301.23,353.89,252.89,353.33z
			 M218.9,269.75c-11.09,31.27-8.25,49.11,9.63,62.68c14.66,11.12,35.79,12.07,50.6,1.12c24.67-18.25,22.06-41.53,9.81-65.09
			c11.6-3.64,21.94-6.88,32.29-10.13c-47.66-3.46-94.33-3.47-140.99-3.4c-1.53,0-3.07,0.78-4.6,1.2c-0.2,1.11-0.4,2.22-0.61,3.33
			C189.65,262.89,204.28,266.32,218.9,269.75z"/>
		<path class="st0" d="M120.21,71.01c16.61-0.13,31.28,13.71,31.97,30.16c0.71,16.9-14.45,32.69-31.5,32.81
			c-17.26,0.12-32.12-15.02-31.74-32.33C89.3,85,103.45,71.14,120.21,71.01z M123.32,79.15c-17.21-0.35-26.31,7.79-26.22,24.2
			c0.07,13.89,8.94,22.04,22.23,22.35c16.24,0.38,24.25-9.29,24.78-23.15c-7.62-1.25-16.14-0.27-20.15-4.06
			C120.82,95.54,123.32,86.65,123.32,79.15z"/>
		<path class="st0" d="M427.79,77.25c-0.26,16.46-14.63,30.93-30.98,31.19c-17.3,0.28-31.92-14.5-31.68-32
			c0.25-17.66,15.09-31.83,32.51-31.04C414.27,46.16,428.05,60.71,427.79,77.25z M420.08,78.05c-8.15-1.79-16.97-1.2-20.32-5.2
			c-3.19-3.81-0.69-12.4-0.69-19.37c-14.92-0.75-24.54,6.07-25.98,21.67c-1.27,13.77,6.25,23.13,19.45,25.02
			C408.87,102.5,417.72,93.23,420.08,78.05z"/>
		<path class="st0" d="M283.12,70.36c0.24,16.47-13.7,31.17-30.22,31.87c-17.26,0.73-32.72-13.79-32.99-30.97
			c-0.25-16.35,13.84-31.27,30.2-31.99C267.23,38.52,282.88,53.26,283.12,70.36z M253.48,47.04c-14.7,0.21-25.16,7.25-25.36,23.84
			c-0.18,14.56,8.74,23.47,23.38,23.25c15.01-0.23,23.17-8.63,23.05-21.81c-7.79-1.72-15.98-1.18-19.24-4.93
			C252.13,63.71,253.98,55.67,253.48,47.04z"/>
		<path class="st0" d="M302.06,388.27c19.75,13.94,19.72,28.74,0,42.77C302.06,416.29,302.06,403.05,302.06,388.27z"/>
		<path class="st0" d="M355.15,385.1c0-12.54,0-25.08,0-37.62c2.16-0.66,4.33-1.32,6.49-1.98c2.73,8.18,7.44,16.35,7.52,24.56
			c0.06,5.85-6.12,11.76-9.51,17.64C358.15,386.83,356.65,385.97,355.15,385.1z"/>
		<path class="st0" d="M256.99,462.42c0-11.47,0-22.94,0-34.41c15.66,11.09,14.72,22.6,6.45,34.38
			C261.29,462.41,259.14,462.41,256.99,462.42z"/>
		<path class="st0" d="M198.2,419.76c0,12.57,0,25.14,0,37.71c-2.73-0.02-5.47-0.05-8.2-0.07c0-12.53,0-25.06,0-37.58
			C192.73,419.8,195.47,419.78,198.2,419.76z"/>
		<path class="st0" d="M159.72,399.63c0-11.45,0-22.9,0-34.35c15.59,11.18,14.95,22.65,5.78,34.29
			C163.58,399.59,161.65,399.61,159.72,399.63z"/>
		<path class="st0" d="M252.15,274.04c-5.74,22.51-2.01,26.73,20,23.32c-1.62,15.47-9.73,24.46-24.67,24.29
			c-13.41-0.16-22.38-9.13-22.73-22.33C224.32,283.23,234.15,274.89,252.15,274.04z"/>
	</g>
	<g id="color_00000151522620023629684030000013641078752167682704_">
		<path d="M142.79,219.68c33.74-13.7,65.66-26.67,99.07-40.24c0-12.7,1.37-28.38-0.7-43.58c-0.78-5.76-8.64-12-14.75-15.34
			c-27.99-15.3-38.68-49.46-23.2-77.01c15-26.7,49.45-36.18,76.12-20.55c18.82,11.03,27.9,27.93,27.31,49.68
			c-0.6,21.89-10.65,39.56-30.72,47.19c-15.16,5.76-17.49,14.09-16.08,27.76c1.07,10.34,0.21,20.87,0.21,31.26
			c29.78,2.72,57.29,5.24,86.42,7.9c4.44-19.13,9.99-38.86,13.08-58.96c0.87-5.68-4.65-12.99-8.55-18.65
			c-18.45-26.77-11.04-63.12,16.68-79.8c27.67-16.64,64.1-6.06,78.22,22.72c14.68,29.92,0.84,65.92-30.69,76.41
			c-10.84,3.61-23.09,3-37.58,4.64c-4.09,17.76-8.71,37.5-13.11,57.29c-0.5,2.27-0.8,5.66,0.45,7.07
			c15.33,17.33,28.92,37.02,46.9,51.04c53.82,41.98,80.24,96.78,84.05,163.81c0.86,15.04,0.2,30.24-17.37,34.84
			c-17.92,4.69-25.14-8.88-30.67-22.43c-7.3,0.58-14.12,1.12-24.82,1.97c4.14-6.57,5.4-11.24,7.72-11.84
			c19.35-4.95,18.05-17.35,14.31-32.88c-6.81-28.26-18.3-53.52-42.78-78.76c-4.49,47.74-9.02,90.63-12.32,133.61
			c-1.19,15.52,3.88,26.14,23.93,23.67c8.57-1.05,18.08,5.5,27.17,8.59c-0.2,2.49-0.4,4.99-0.6,7.48c-6.5,2.3-12.88,6.11-19.51,6.62
			c-20.45,1.56-40.98,2.42-61.49,2.54c-91.48,0.52-182.96,0.93-274.43,0.77c-15.76-0.03-31.52-2.98-47.27-4.58
			c-0.28-2.4-0.56-4.79-0.84-7.19c9.97-2.6,19.84-5.74,29.93-7.69c38.12-7.37,45-14.68,44.34-53.18
			c-0.39-22.99-2.93-45.94-4.72-68.89c-0.38-4.81-1.72-9.55-3.11-16.9c-27.47,23.59-42.32,52.09-49.81,84.74
			c-0.7,3.06,3.81,7.87,6.76,11.08c3.28,3.56,7.62,6.12,11.31,9.34c0.7,0.61,0.49,2.27,1.31,6.96c-7.93-0.68-14.95-1.28-23.27-1.99
			c-0.71,1.2-2.18,3.78-3.72,6.32c-6.72,11.03-17.95,16.82-28.32,10.68c-7.29-4.31-14.41-16.54-14.01-24.87
			c1.64-34.08,13.42-65.6,31.47-94.58c17.1-27.46,39.6-49.7,67.96-65.26c12.01-6.59,16.48-15.03,16.11-28.46
			c-0.77-27.31-0.23-54.65-0.23-82.18c-7.49-2.43-14.04-4.11-20.24-6.66c-22.05-9.07-35.16-31-33.36-55.22
			c1.84-24.73,18.87-44.24,43.41-49.74c23.17-5.19,46.95,5.11,59.24,25.66c12.06,20.19,12.26,50.24-6.07,63.59
			c-20.75,15.1-19.49,33.48-19.17,53.71C142.92,201.04,142.79,210.88,142.79,219.68z M252.89,353.33
			c48.34,0.55,90.64-27.18,103.27-67.7c8.46-27.17,3.22-40.51-23.45-49.26c-52.23-17.15-105.21-17.01-157.47-0.07
			c-26.56,8.61-31.93,22.04-23.57,49.15C164.01,325.47,204.73,352.78,252.89,353.33z M120.21,71.01
			c-16.76,0.13-30.91,14-31.27,30.64c-0.38,17.31,14.49,32.45,31.74,32.33c17.05-0.12,32.21-15.91,31.5-32.81
			C151.49,84.71,136.82,70.88,120.21,71.01z M427.79,77.25c0.26-16.54-13.52-31.09-30.15-31.85c-17.42-0.79-32.26,13.38-32.51,31.04
			c-0.24,17.5,14.38,32.28,31.68,32C413.16,108.18,427.53,93.71,427.79,77.25z M283.12,70.36c-0.24-17.1-15.89-31.85-33-31.09
			c-16.37,0.72-30.46,15.64-30.2,31.99c0.27,17.19,15.73,31.71,32.99,30.97C269.42,101.53,283.36,86.83,283.12,70.36z
			 M302.06,388.27c0,14.78,0,28.02,0,42.77C321.78,417.01,321.81,402.21,302.06,388.27z M355.15,385.1c1.5,0.87,3,1.73,4.5,2.6
			c3.39-5.88,9.57-11.79,9.51-17.64c-0.08-8.21-4.79-16.37-7.52-24.56c-2.16,0.66-4.33,1.32-6.49,1.98
			C355.15,360.02,355.15,372.56,355.15,385.1z M256.99,462.42c2.15-0.01,4.3-0.02,6.45-0.03c8.27-11.78,9.21-23.29-6.45-34.38
			C256.99,439.48,256.99,450.95,256.99,462.42z M198.2,419.76c-2.73,0.02-5.47,0.04-8.2,0.06c0,12.53,0,25.06,0,37.58
			c2.73,0.02,5.47,0.05,8.2,0.07C198.2,444.9,198.2,432.33,198.2,419.76z M159.72,399.63c1.93-0.02,3.86-0.04,5.78-0.07
			c9.17-11.64,9.81-23.1-5.78-34.29C159.72,376.73,159.72,388.18,159.72,399.63z"/>
		<path d="M218.9,269.75c-14.62-3.43-29.25-6.86-43.88-10.29c0.2-1.11,0.4-2.22,0.61-3.33c1.53-0.42,3.07-1.2,4.6-1.2
			c46.67-0.06,93.33-0.05,140.99,3.4c-10.35,3.25-20.69,6.49-32.29,10.13c12.25,23.56,14.86,46.84-9.81,65.09
			c-14.81,10.95-35.94,10-50.6-1.12C210.65,318.86,207.81,301.02,218.9,269.75z M252.15,274.04c-18,0.86-27.83,9.19-27.4,25.27
			c0.35,13.2,9.32,22.17,22.73,22.33c14.95,0.18,23.06-8.82,24.67-24.29C250.14,300.77,246.42,296.55,252.15,274.04z"/>
		<path d="M123.32,79.15c0,7.51-2.5,16.4,0.62,19.34c4.01,3.79,12.53,2.81,20.15,4.06c-0.53,13.86-8.54,23.54-24.78,23.15
			c-13.29-0.31-22.15-8.46-22.23-22.35C97.01,86.94,106.11,78.8,123.32,79.15z"/>
		<path d="M420.08,78.05c-2.36,15.18-11.21,24.45-27.53,22.11c-13.2-1.89-20.72-11.25-19.45-25.02
			c1.43-15.6,11.06-22.41,25.98-21.67c0,6.98-2.51,15.57,0.69,19.37C403.11,76.85,411.93,76.26,420.08,78.05z"/>
		<path d="M253.48,47.04c0.5,8.64-1.35,16.67,1.83,20.34c3.25,3.75,11.45,3.21,19.24,4.93c0.13,13.18-8.03,21.59-23.05,21.81
			c-14.65,0.22-23.56-8.69-23.38-23.25C228.31,54.29,238.78,47.25,253.48,47.04z"/>
	</g>
</g>
</svg>
