<?xml version="1.0" encoding="utf-8"?>
<!-- Generator: Adobe Illustrator 27.5.0, SVG Export Plug-In . SVG Version: 6.00 Build 0)  -->
<svg version="1.1" id="Layer_1" xmlns="http://www.w3.org/2000/svg" xmlns:xlink="http://www.w3.org/1999/xlink" x="0px" y="0px"
	 viewBox="0 0 500 500" style="enable-background:new 0 0 500 500;" xml:space="preserve">
<style type="text/css">
	#white path{fill:#ffffff;}
</style>
<g id="monster">
	<g id="color">
		<path d="M390.85,309.51c-11.3,7.66-19.14,12.97-27.32,18.52c4.58,50.61-19.3,88.56-56.35,120.35c9.2,5.35,18.31,9.54,25.99,15.55
			c4.07,3.18,8.38,10.05,7.57,14.29c-0.73,3.8-8.06,8.39-12.94,8.99c-24.05,2.99-48.24,6.4-72.39,6.52
			c-24.17,0.11-48.42-2.96-72.48-5.9c-5.8-0.71-10.99-6.43-16.46-9.84c3.64-5.54,6.28-12.31,11.18-16.3
			c6.4-5.21,14.59-8.22,23.22-12.82c-35.95-32.02-61.17-69.25-56.08-120.46c-8.12-5.62-16.26-11.27-27.83-19.28
			c-1.65,24.92-3.14,47.44-4.6,69.43c33.25,11.01,39.46,25.23,28.16,57.3c-1.41,4,2.65,9.8,3.8,14.86c0.78,3.44,0.9,7.03,1.32,10.55
			c-3.14-1.14-6.74-1.67-9.3-3.58c-3.45-2.58-6.1-6.23-9.1-9.42c-1.36,1-2.73,1.99-4.09,2.99c3.8,5.57,7.92,10.96,11.25,16.79
			c1.23,2.15,0.61,5.36,0.83,8.09c-2.79-0.32-6.77,0.43-8.18-1.14c-6.76-7.48-12.82-15.59-19.14-23.47
			c-1.18,0.69-2.37,1.38-3.55,2.06c3.35,6.74,6.42,13.64,10.15,20.17c3.3,5.78,7.33,11.14,8.31,18.32
			c-25.62-12.64-29.29-38.18-39.17-61.43c-1.67,11.29-3.34,22.58-5,33.87c-1.37,0.2-2.74,0.41-4.11,0.61
			c-1.4-3.61-3.67-7.13-4.04-10.84c-2.46-24.47,10.75-44.24,19.98-65.22c2.6-5.91,5.62-12.05,6.3-18.32
			c2.79-25.69,4.76-51.46,7-77.2c0.32-3.63,1.4-7.51,0.56-10.88c-7.64-30.59-1.69-59.85,8.98-88.39c3.21-8.59,2.26-13.97-3.63-21.01
			c-8.05-9.61-15.35-20.32-20.74-31.62C73.45,109.1,76.85,78.02,99.93,49.89c16.25-19.81,36.47-34.39,59.71-44.55
			c0.97,1,1.94,2.01,2.92,3.01c-4.05,4.1-8.23,8.07-12.12,12.31c-9.26,10.08-19.53,19.48-27.37,30.59
			c-24.27,34.39-18.84,64.68,16.01,91.25c29.13-37.98,62.02-71.46,114.31-71.8c52.64-0.34,85.71,32.99,115.09,71.05
			c31.29-19.8,40.43-50.55,22.1-81.2c-8.78-14.69-21.55-27.1-33.22-39.91c-3.72-4.08-9.69-6.11-12.73-10.96
			c53.6,5.58,95.04,70.58,79.63,119.43c-2.36,7.49-4.47,16.32-9.72,21.43c-22.55,21.97-21.26,45.3-12.06,73.45
			c5.72,17.51,1.29,38.34,1.4,57.68c0.03,4.71-0.48,9.47,0.02,14.12c1.07,9.96,3.84,19.88,3.79,29.81
			c-0.16,34.43,6.75,66.46,24.11,96.86c9.95,17.43,7.55,32.8-2.92,44.91c-1.82-13.63-3.31-24.77-4.8-35.9
			c-1.18-0.15-2.36-0.31-3.54-0.46c-2.57,9.08-4.06,18.65-7.98,27.11c-5.03,10.87-11.62,21.1-18.44,30.98
			c-1.46,2.12-6.78,1.58-10.32,2.26c0.79-3.14,0.92-6.68,2.5-9.35c5.59-9.47,11.67-18.65,15.8-29.11
			c-13.18,4.52-13.29,24.72-33.78,23.98c6.32-10.26,11.1-18,15.87-25.74c-1.41-1.03-2.81-2.05-4.22-3.08
			c-3.15,3.53-5.87,7.63-9.59,10.37c-2.37,1.74-6.22,1.46-9.41,2.09c0.28-2.75-0.52-6.66,1.01-8.07c8.14-7.55,6.3-14.48,2.19-23.79
			c-9.76-22.11,1.66-40.67,30.76-50.02C393.65,356.89,392.33,334.59,390.85,309.51z"/>
		<path d="M254.64,283.61c45.54-0.16,82.61-37.26,82.63-82.69c0.02-46.17-37.54-83.57-83.73-83.36
			c-45.54,0.2-82.27,37.11-82.43,82.84C170.94,246.83,208.02,283.77,254.64,283.61z"/>
		<path d="M297.5,192.99c3.94,22.28-4.73,39.83-24.17,48.91c-18.18,8.49-40.3,3.92-53.51-11.05c-13.11-14.87-14.9-37.62-4.28-54.52
			c11.26-17.92,30.16-24.46,51.65-17.88c-14.84,16.04-16.87,27.11-6.89,37.64C270.22,206.55,280.58,205.69,297.5,192.99z"/>
		<path d="M253.08,214.33c-7.58-5.08-12.28-10.67-16.02-10.09c-4,0.62-9.01,6.72-9.83,11.12c-0.49,2.6,6.3,9.26,9.77,9.23
			C241.29,224.56,245.54,219.47,253.08,214.33z"/>
	</g>
	<g id="white">
		<path class="st0" d="M254.64,283.61c-46.61,0.16-83.69-36.78-83.53-83.21c0.16-45.73,36.89-82.64,82.43-82.84
			c46.18-0.2,83.74,37.2,83.73,83.36C337.25,246.35,300.18,283.44,254.64,283.61z M297.5,192.99c-16.92,12.7-27.28,13.56-37.19,3.11
			c-9.98-10.53-7.95-21.6,6.89-37.64c-21.49-6.58-40.39-0.04-51.65,17.88c-10.62,16.9-8.84,39.65,4.28,54.52
			c13.21,14.97,35.33,19.54,53.51,11.05C292.77,232.82,301.44,215.27,297.5,192.99z"/>
		<path class="st0" d="M253.08,214.33c-7.55,5.14-11.79,10.23-16.09,10.27c-3.47,0.03-10.26-6.63-9.77-9.23
			c0.83-4.41,5.84-10.5,9.83-11.12C240.8,203.66,245.51,209.25,253.08,214.33z"/>
	</g>
</g>
</svg>
