<?xml version="1.0" encoding="utf-8"?>
<!-- Generator: Adobe Illustrator 27.5.0, SVG Export Plug-In . SVG Version: 6.00 Build 0)  -->
<svg version="1.1" id="Layer_1" xmlns="http://www.w3.org/2000/svg" xmlns:xlink="http://www.w3.org/1999/xlink" x="0px" y="0px"
	 viewBox="0 0 500 500" style="enable-background:new 0 0 500 500;" xml:space="preserve">
<style type="text/css">
	.st0{fill:#FFFFFF;}
</style>
<g id="monster_00000109742782538160240720000005523283076011199878_">
	<g id="white_00000098916918434537737360000012382114705682182799_">
		<path class="st0" d="M250.65,30.31C301.8,31.6,346.57,48,378.32,89.97c7.41,9.8,8.38,24.48,12.32,36.91
			c-12.3,0.68-25.82,5.04-36.7,1.44c-69.2-22.92-137.62-23.1-206.81,0.04c-10.87,3.64-24.43-0.73-36.74-1.39
			c3.9-12.46,4.78-27.2,12.21-36.98C154.39,48.12,199.09,31.55,250.65,30.31z M204.3,71.03c-13.72-0.18-21.97,5.96-20.65,16.49
			c0.86,6.86,9.05,17.38,14.72,17.9c7.3,0.66,15.36-7.05,23.09-11.15c-0.31-2.02-0.62-4.05-0.93-6.07
			C206.79,90.41,197.43,88.56,204.3,71.03z M303,70.73c-14.76,0.65-22.71,7.37-20.51,18.98c1.2,6.34,9.01,14.58,15.28,16.13
			c11.16,2.75,18.74-4.13,19.78-17.13C303.33,90.98,296.8,86.57,303,70.73z"/>
		<path class="st0" d="M133.17,285.78c17.28,4.12,32.59,9.91,48.26,11.14c55.9,4.37,107.94-13.04,159.74-30.93
			c14.21-4.91,28.56-9.39,42.85-14.07c1.34,1.96,2.67,3.91,4.01,5.87c-2.77,1.18-5.76,2.02-8.28,3.6
			c-60.83,38.1-125.4,62.63-198.79,52.97c-11.49-1.51-23.23-5.64-33.39-11.23C141.12,299.59,137.37,291.1,133.17,285.78z"/>
	</g>
	<g id="color_00000011730082572210233900000002012261387549794458_">
		<path d="M219.1,367.52c-4.39,40.21-9.01,82.58-13.89,127.37c-28.27,0-56.49,0-84.71,0c-0.31-0.92-0.63-1.84-0.94-2.76
			c20.16-3.58,40.33-7.16,62.78-11.15c-3.84-35.22-7.6-69.71-11.95-109.57c-8.67,14.35-14.19,24.66-20.9,34.13
			c-3.48,4.92-9.05,8.37-13.68,12.48c-3.28-5.26-7.09-10.27-9.66-15.85c-1.66-3.61-1.52-8.04-2.14-11.86
			c-6.83,4.49-13.48,8.86-20.13,13.24c-4.13-12.25-8.26-24.5-11.72-34.74c-4.45,2.46-11.4,6.31-18.36,10.15
			c-2.61-8.8-7.24-17.57-7.35-26.39c-0.14-11.54,3.28-23.12,4.95-33.31c-6,1.41-12.69,2.98-19.37,4.55
			c-0.59-8.04-3.5-16.8-1.27-23.96c4.36-14.01,11.6-27.14,17.77-40.9c-7.83,1.89-16.42,3.97-25.01,6.05
			c-1.31-1.91-2.62-3.81-3.94-5.72c11.72-36.78,46.41-49.34,74.76-64.14c-9.49-29.11-20.99-56.49-27.11-85.01
			c-9.42-43.88,2.64-66.51,45.05-82.48C213.36-2.9,295.66-2.81,376.71,27.75c41.45,15.63,51.9,37.57,45.12,81.28
			c-1.27,8.22-3.01,16.39-4.98,24.47c-8.8,36.13-25.94,61.62-66.28,71.89c-50.24,12.8-99.16,30.82-152.02,26.06
			c-14.07-1.27-27.72-7.11-43.26-11.31c0.63,12.09,10.91,20.88,22.98,22.41c29.2,3.7,59.86,10.11,87.95,4.84
			c38.02-7.13,74.07-24.55,111.26-36.62c7.4-2.4,17.97-3.71,23.93-0.19c17.22,10.17,33.51,22.26,48.73,35.27
			c5.89,5.04,7.93,14.59,11.73,22.08c-1.2,1.46-2.4,2.92-3.6,4.38c-8.65-2.08-17.29-4.17-25.6-6.17
			c6.01,14.23,13.33,28.75,18.05,44.08c1.97,6.38-1.61,14.47-2.67,21.79c-6.28-2.12-12.57-4.23-18.34-6.18
			c1.6,11.33,4.93,24.51,4.76,37.65c-0.1,7.95-5.63,15.83-8.71,23.74c-6.02-3.86-12.05-7.71-19.66-12.59c0,3.91,0.97,8.52-0.2,12.5
			c-2.4,8.14-5.95,15.94-9.02,23.88c-6.35-4.27-12.7-8.53-19.79-13.29c0.96-0.67-0.37-0.25-0.69,0.56
			c-3.56,8.97-6.96,17.99-10.41,27c-6.83-7.41-13.81-14.68-20.4-22.29c-2.6-3.01-4.34-6.76-9.18-14.53
			c-3.78,33.47-7.03,62.33-10.41,92.22c21.96,4.07,42.43,7.87,62.91,11.67c-0.23,1.01-0.45,2.03-0.68,3.04c-28.09,0-56.18,0-84.94,0
			c-4.8-44.34-9.4-86.79-13.85-127.87C265.72,367.52,243.66,367.52,219.1,367.52z M250.65,30.31
			c-51.57,1.24-96.27,17.81-128.06,59.67c-7.43,9.78-8.31,24.52-12.21,36.98c12.31,0.67,25.87,5.03,36.74,1.39
			c69.2-23.14,137.61-22.96,206.81-0.04c10.88,3.6,24.4-0.76,36.7-1.44c-3.93-12.43-4.9-27.11-12.32-36.91
			C346.57,48,301.8,31.6,250.65,30.31z M133.17,285.78c4.21,5.32,7.95,13.81,14.41,17.36c10.16,5.59,21.9,9.72,33.39,11.23
			c73.39,9.65,137.95-14.88,198.79-52.97c2.52-1.58,5.51-2.42,8.28-3.6c-1.34-1.96-2.67-3.91-4.01-5.87
			c-14.29,4.68-28.64,9.16-42.85,14.07c-51.81,17.89-103.85,35.3-159.74,30.93C165.76,295.69,150.44,289.91,133.17,285.78z"/>
		<path d="M204.3,71.03c-6.87,17.53,2.48,19.38,16.23,17.17c0.31,2.02,0.62,4.05,0.93,6.07c-7.73,4.1-15.79,11.81-23.09,11.15
			c-5.67-0.51-13.86-11.04-14.72-17.9C182.33,76.99,190.58,70.85,204.3,71.03z"/>
		<path d="M303,70.73c-6.19,15.84,0.34,20.25,14.55,17.98c-1.04,13-8.63,19.89-19.78,17.13c-6.27-1.55-14.08-9.79-15.28-16.13
			C280.29,78.1,288.23,71.38,303,70.73z"/>
	</g>
</g>
</svg>
