<?xml version="1.0" encoding="utf-8"?>
<!-- Generator: Adobe Illustrator 27.5.0, SVG Export Plug-In . SVG Version: 6.00 Build 0)  -->
<svg version="1.1" id="Layer_1" xmlns="http://www.w3.org/2000/svg" xmlns:xlink="http://www.w3.org/1999/xlink" x="0px" y="0px"
	 viewBox="0 0 500 500" style="enable-background:new 0 0 500 500;" xml:space="preserve">
<style type="text/css">
	.st0{fill:#FFFFFF;}
</style>
<g id="monster_00000182527077904644478270000010584381633741570969_">
	<g id="color_00000158714508662000101300000009585088065066727351_">
		<path d="M363.34,178.22c-22.11-9.16-43.08-18.08-64.3-26.34c-2.71-1.06-7.04,0.73-10.11,2.23c-4.92,2.39-9.09,6.6-14.16,8.3
			c-7.76,2.6-10.77,6.55-11.93,15.07c-0.68,4.99-7.8,12.23-12.78,12.91c-14.44,1.97-29.59,3.22-43.86,0.97
			c-29.69-4.69-55.19-18.8-75.15-41.67C106.01,121,104.39,82,128.22,53.03c27.26-33.14,63.23-48.94,106.12-47.62
			c23.32,0.72,27.8,5.55,30.32,28.05c32.08,12.06,50.25,34.24,50.48,69.81c0.02,3.12,4.5,7.62,7.94,9.08
			c29.59,12.62,59.43,24.68,89.18,36.93c3.87,1.6,7.66,3.38,12.62,5.58c-3.95,8.39-7.58,16.35-11.42,24.2
			c-14.67,30.05-29.58,59.99-43.93,90.2c-1.9,4-1.98,9.42-1.37,13.98c2.57,19.11,7.24,38.06,8.25,57.22
			c1.11,21.05-2.24,42.32-1.3,63.39c1.04,23.23,11.08,30.21,34,28.48c8.78-0.67,18.18-1.26,26.39,1.18
			c7.25,2.15,17.53,7.74,18.61,13.33c1.12,5.83-5.67,15.58-11.69,19.82c-9.47,6.68-20.76,12.65-32.03,14.59
			c-33.26,5.71-66.87,12.77-100.38,13c-68.98,0.46-137.99-2.85-206.96-5.45c-11.59-0.44-23.44-4-34.42-8.12
			c-14.14-5.31-16.11-15.02-6.69-26.92c10.48-13.25,25.91-17.51,41.37-19.96c10.99-1.74,16.36-6.3,20.21-16.88
			c15.13-41.6,34.84-80.92,63.94-114.79c35.44-41.24,78.07-64.4,134.5-53.02c2.79,0.56,8.15-3.35,9.76-6.48
			C342.36,221.94,352.31,200.9,363.34,178.22z"/>
		<path d="M220.11,100.34c-0.44-0.01-0.88-0.01-1.33-0.02c0-10.98,0.77-22.02-0.17-32.92c-1.71-20.05-14.19-27.95-33.57-22.2
			c-25.68,7.61-44.24,31.55-43.43,56.04c0.8,24.29,20.93,47.2,46.86,53.36c16.3,3.87,27.72-3.43,29.78-20.13
			C219.65,123.19,219.54,111.73,220.11,100.34z"/>
		<path d="M151.6,436.11c-1.88-4.81-3.46-9.87-6.06-14.34c-0.37-0.63-6.32,0.83-8.62,2.66c-10.86,8.61-14.46,31.87-6.71,43.26
			c1.72,2.53,5.24,5.6,7.66,5.39c2.45-0.22,5.79-3.85,6.59-6.61C147.28,456.79,149.17,446.84,151.6,436.11z"/>
		<path d="M222.92,382.86c-1.84-4.73-3.61-10.06-6.25-14.93c-0.27-0.5-6.27,1.03-8.59,2.89c-10.65,8.56-14.24,31.49-6.76,42.94
			c1.68,2.57,4.92,5.72,7.42,5.69c2.37-0.02,6.01-3.47,6.8-6.09C218.41,403.81,220.33,393.97,222.92,382.86z"/>
		<path d="M297.63,447.1c1.1,7.14,1.15,11.91,2.63,16.18c2.85,8.24,9.1,9.58,13.8,2.63c8.16-12.04,11.01-25.57,5.89-39.59
			c-3.04-8.35-9.42-9.07-13.75-1.53C301.94,432.21,299.92,440.91,297.63,447.1z"/>
		<path d="M363.88,374.86c-4.65-7.06-8.28-12.56-11.91-18.07c-4.41,5.02-11.68,9.58-12.57,15.16c-1.42,8.89,1.21,18.49,2.77,27.68
			c0.13,0.79,6.81,1.91,7.4,0.97C354.51,392.71,358.73,384.37,363.88,374.86z"/>
		<path d="M260.31,437.08c-3.05-4.82-6.44-10.16-9.83-15.51c-4.54,4.79-10.74,8.87-13.17,14.57c-2.47,5.8-2.21,13.33-1.24,19.82
			c0.56,3.76,4.88,6.96,7.51,10.41c3.47-2.65,8.3-4.61,10.11-8.12C256.72,452.42,257.8,445.59,260.31,437.08z"/>
		<path d="M155.15,387.89c6.66,6.72,10.35,13.73,14.76,14.22c9.38,1.04,13.5-7.23,12.46-15.18c-0.67-5.13-6.04-9.65-9.3-14.44
			C167.9,376.93,162.73,381.38,155.15,387.89z"/>
		<path d="M263.81,361.24c-6.77-6.52-10.64-13.45-14.98-13.75c-9.32-0.66-13.3,7.87-12.33,15.63c0.62,5.01,6.39,9.37,9.86,14.02
			C251.38,372.57,256.4,368,263.81,361.24z"/>
		<path d="M265.66,383.67c6.83,6.29,10.79,13.05,15.14,13.31c9.45,0.58,13.01-8.07,11.92-15.77c-0.71-4.99-6.37-9.29-9.81-13.89
			C277.96,372.01,273.01,376.7,265.66,383.67z"/>
		<path d="M223.02,336.37c-7.73-5.89-12.17-11.86-16.63-11.87c-3.77-0.01-10.72,7.03-10.54,10.67c0.23,4.61,5.8,11.9,9.91,12.53
			C209.81,348.31,214.91,342.05,223.02,336.37z"/>
		<path d="M194.49,428.17c-6.91-5.74-11.68-12.43-14.91-11.76c-4.69,0.98-11.22,7.11-11.46,11.36c-0.23,4.04,6.29,11.48,10.42,11.91
			C182.61,440.11,187.4,433.63,194.49,428.17z"/>
		<path d="M367.32,464.51c5.47-8.17,10.95-12.79,10.89-17.33c-0.05-3.98-6.34-7.87-9.87-11.79c-4.02,3.97-10.3,7.45-11.32,12.08
			C356.22,451.09,361.96,456.15,367.32,464.51z"/>
		<path d="M317.29,381.57c4.38-5.46,7.14-8.91,9.91-12.36c-4.01-3.03-7.81-7.95-12.12-8.44c-3.05-0.35-6.78,5.3-10.21,8.27
			C308.34,372.54,311.82,376.05,317.29,381.57z"/>
		<path d="M277.74,436.73c-4.94,5.2-8.01,8.44-11.09,11.68c3.77,3.3,7.22,8.57,11.42,9.25c3.16,0.51,7.27-4.86,10.96-7.61
			C285.86,446.32,282.69,442.57,277.74,436.73z"/>
		<path d="M340.6,415.79c-4.49,5.4-7.32,8.79-10.14,12.19c3.98,3.01,7.75,7.91,12.02,8.4c3.09,0.35,6.85-5.15,10.31-8.04
			C349.37,424.82,345.95,421.3,340.6,415.79z"/>
		<path d="M210.83,468.75c4.36-5.3,7.17-8.72,9.98-12.14c-3.91-3.01-7.61-7.96-11.79-8.41c-3.16-0.34-6.94,5.07-10.44,7.91
			C202.04,459.68,205.49,463.24,210.83,468.75z"/>
		<path d="M186.98,57.11c11.01-1.91,19.27,4.27,20.3,15.67c1.58,17.47,1.94,35.33,0.09,52.73c-1.58,14.78-13.11,19.88-27.3,14.96
			c-20.11-6.98-31.34-27.2-27.32-49.23c11.46,15.48,20.83,14.61,27.87-3.69C184.09,78.52,184.72,68.41,186.98,57.11z"/>
		<path d="M203.03,112.28c-5.04-4.19-8.52-7.07-11.99-9.96c-1.88,2.87-5.86,6.46-5.18,8.45c1.29,3.77,5.26,6.63,8.12,9.87
			C196.38,118.41,198.8,116.18,203.03,112.28z"/>
	</g>
	<g id="white_00000129206876558311789810000012303664154916531618_">
		<path class="st0" d="M220.11,100.34c-0.56,11.38-0.46,22.85-1.85,34.14c-2.06,16.69-13.48,24-29.78,20.13
			c-25.93-6.16-46.05-29.07-46.86-53.36c-0.81-24.49,17.74-48.43,43.43-56.04c19.38-5.74,31.86,2.15,33.57,22.2
			c0.93,10.9,0.17,21.94,0.17,32.92C219.22,100.33,219.67,100.33,220.11,100.34z M186.98,57.11c-2.25,11.3-2.88,21.41-6.36,30.43
			c-7.04,18.29-16.42,19.16-27.87,3.69c-4.01,22.03,7.21,42.25,27.32,49.23c14.19,4.92,25.72-0.17,27.3-14.96
			c1.85-17.4,1.49-35.27-0.09-52.73C206.25,61.38,197.99,55.2,186.98,57.11z"/>
		<path class="st0" d="M151.6,436.11c-2.44,10.73-4.32,20.68-7.13,30.36c-0.8,2.76-4.14,6.4-6.59,6.61
			c-2.42,0.22-5.94-2.86-7.66-5.39c-7.75-11.4-4.16-34.65,6.71-43.26c2.31-1.83,8.25-3.3,8.62-2.66
			C148.15,426.24,149.73,431.3,151.6,436.11z"/>
		<path class="st0" d="M222.92,382.86c-2.6,11.11-4.51,20.95-7.39,30.51c-0.79,2.63-4.43,6.07-6.8,6.09
			c-2.49,0.03-5.74-3.12-7.42-5.69c-7.48-11.45-3.89-34.38,6.76-42.94c2.32-1.86,8.32-3.39,8.59-2.89
			C219.31,372.8,221.08,378.13,222.92,382.86z"/>
		<path class="st0" d="M297.63,447.1c2.29-6.19,4.31-14.89,8.57-22.31c4.33-7.54,10.71-6.82,13.75,1.53
			c5.11,14.02,2.26,27.55-5.89,39.59c-4.7,6.95-10.95,5.6-13.8-2.63C298.78,459.01,298.73,454.24,297.63,447.1z"/>
		<path class="st0" d="M363.88,374.86c-5.15,9.5-9.37,17.84-14.31,25.74c-0.59,0.94-7.27-0.17-7.4-0.97
			c-1.56-9.19-4.19-18.79-2.77-27.68c0.89-5.58,8.16-10.14,12.57-15.16C355.6,362.3,359.23,367.8,363.88,374.86z"/>
		<path class="st0" d="M260.31,437.08c-2.52,8.51-3.6,15.34-6.61,21.17c-1.81,3.51-6.64,5.46-10.11,8.12
			c-2.63-3.45-6.95-6.65-7.51-10.41c-0.97-6.49-1.23-14.02,1.24-19.82c2.42-5.69,8.63-9.78,13.17-14.57
			C253.87,426.92,257.26,432.27,260.31,437.08z"/>
		<path class="st0" d="M155.15,387.89c7.58-6.51,12.75-10.95,17.92-15.4c3.26,4.79,8.62,9.31,9.3,14.44
			c1.05,7.95-3.08,16.21-12.46,15.18C165.5,401.62,161.81,394.61,155.15,387.89z"/>
		<path class="st0" d="M263.81,361.24c-7.41,6.75-12.43,11.33-17.45,15.9c-3.46-4.65-9.23-9.02-9.86-14.02
			c-0.97-7.75,3.01-16.29,12.33-15.63C253.17,347.8,257.04,354.73,263.81,361.24z"/>
		<path class="st0" d="M265.66,383.67c7.35-6.97,12.3-11.66,17.25-16.35c3.44,4.61,9.1,8.9,9.81,13.89
			c1.09,7.7-2.47,16.35-11.92,15.77C276.45,396.72,272.49,389.97,265.66,383.67z"/>
		<path class="st0" d="M223.02,336.37c-8.12,5.68-13.21,11.94-17.26,11.32c-4.11-0.63-9.67-7.92-9.91-12.53
			c-0.18-3.63,6.77-10.68,10.54-10.67C210.86,324.52,215.3,330.48,223.02,336.37z"/>
		<path class="st0" d="M194.49,428.17c-7.09,5.46-11.89,11.94-15.96,11.51c-4.13-0.43-10.65-7.87-10.42-11.91
			c0.24-4.25,6.78-10.38,11.46-11.36C182.81,415.74,187.59,422.43,194.49,428.17z"/>
		<path class="st0" d="M367.32,464.51c-5.36-8.36-11.1-13.42-10.3-17.04c1.02-4.63,7.3-8.11,11.32-12.08
			c3.53,3.93,9.82,7.82,9.87,11.79C378.27,451.73,372.79,456.35,367.32,464.51z"/>
		<path class="st0" d="M317.29,381.57c-5.47-5.52-8.94-9.03-12.42-12.53c3.43-2.97,7.16-8.62,10.21-8.27
			c4.3,0.49,8.1,5.41,12.12,8.44C324.43,372.66,321.67,376.1,317.29,381.57z"/>
		<path class="st0" d="M277.74,436.73c4.95,5.84,8.12,9.58,11.3,13.33c-3.69,2.75-7.8,8.12-10.96,7.61
			c-4.2-0.68-7.65-5.95-11.42-9.25C269.73,445.18,272.8,441.94,277.74,436.73z"/>
		<path class="st0" d="M340.6,415.79c5.35,5.51,8.77,9.03,12.19,12.55c-3.46,2.89-7.22,8.39-10.31,8.04
			c-4.27-0.49-8.04-5.39-12.02-8.4C333.28,424.59,336.11,421.19,340.6,415.79z"/>
		<path class="st0" d="M210.83,468.75c-5.34-5.51-8.8-9.07-12.25-12.64c3.5-2.85,7.28-8.26,10.44-7.91
			c4.19,0.45,7.89,5.4,11.79,8.41C218,460.03,215.19,463.45,210.83,468.75z"/>
		<path class="st0" d="M203.03,112.28c-4.23,3.9-6.64,6.13-9.06,8.35c-2.86-3.24-6.83-6.09-8.12-9.87c-0.68-1.99,3.3-5.58,5.18-8.45
			C194.51,105.2,197.99,108.09,203.03,112.28z"/>
	</g>
</g>
</svg>
