<?xml version="1.0" encoding="utf-8"?>
<!-- Generator: Adobe Illustrator 27.5.0, SVG Export Plug-In . SVG Version: 6.00 Build 0)  -->
<svg version="1.1" id="Layer_1" xmlns="http://www.w3.org/2000/svg" xmlns:xlink="http://www.w3.org/1999/xlink" x="0px" y="0px"
	 viewBox="0 0 500 500" style="enable-background:new 0 0 500 500;" xml:space="preserve">
<style type="text/css">
	.st0{fill:#FFFFFF;}
</style>
<g id="monster_00000057847743754239059850000010214357944280322991_">
	<g id="color_00000016757472113155975620000000658987178370632876_">
		<path d="M391.11,302.46c18.9,20.24,19.38,30.96,0.67,55.58c-1.79,2.35-3.09,6.49-2.33,9.14c5.31,18.47-4.22,26.12-21.54,29.25
			c0,15.79,0,31.48,0,48.16c31.46,6.65,65.51,4.29,99.17,25.62c-51.51,26.2-102.35,22.19-154.9,26.28c0-30.92,0-60.03,0-87.92
			c-42.05,0-81.34,0-123.83,0c0,27.31,0,56.28,0,87.71c-53.25-3.18-103.81-0.59-156.1-25.41c32.92-22.5,67.01-19.16,99.12-26.55
			c0-15,0-30.1,0-46.57c-14.01-4.68-26.49-11.69-21.27-30.77c0.43-1.57-1.72-4.17-3.16-5.88c-21.08-24.89-21.26-33.38-1.04-55.82
			c-23.04-32.49-19.64-51.36,16.13-71.89c-3.91-8.97-6.79-19.2-12.36-27.65c-12.81-19.42-26.41-38.38-40.76-56.69
			c-6.1-7.79-15.9-12.66-22.11-20.39c-4.4-5.49-8.48-14.07-7.35-20.3c0.95-5.23,9.62-12.55,14.91-12.58
			c6.33-0.04,15.03,5.19,18.61,10.76c11.28,17.59,20.55,36.46,30.83,54.71c2.39,4.24,5.69,7.97,8.56,11.95
			c16.38,22.71,27.41,28.26,51.52,17.96c11.05-4.72,19.24-17.61,26.75-28.21c2.36-3.33-1.19-11.4-2.96-17.02
			c-4.41-14.01-9.83-27.72-13.96-41.8c-4.49-15.35-8.82-28.12-27.56-34.07c-18.18-5.77-23.18-30.02-13.68-46.93
			c9.5-16.9,30.85-22.82,47.8-13.24c16.75,9.47,24.35,32.3,12.51,47.44c-9.09,11.63-6.45,20.56-2.39,31.73
			c7.11,19.56,11.89,40.16,20.94,58.72c3.91,8.02,15.44,14.92,24.65,16.8c5.58,1.14,14.67-7.17,19.74-13.26
			c6.25-7.5-1.53-45.63-6.21-55.38c-4.05-8.42-6.6-20.23-3.74-28.43c2.25-6.47,13.89-13.67,21.06-13.38
			c8.04,0.33,17.89,7.2,22.88,14.15c3.55,4.94,2.84,15.98-0.26,22.14c-17.32,34.43-16.58,49.2,6.77,80.8
			c16.05,0.72,25.07-8.02,32.22-21.57c8.84-16.76,19.56-32.53,29.34-48.81c7.36-12.26,15.55-23,11.33-40.15
			c-3.37-13.71,7.42-24.36,22.26-26.24c14.82-1.88,25.22,5.41,28.64,19.92c3.42,14.5-3.32,24.11-16.5,31.07
			c-8.41,4.44-16.77,10.69-22.48,18.17c-9.24,12.1-16.26,25.9-24.26,38.96c-17.28,28.2-17.29,28.19-13.1,58.47
			c11.71,4.15,22.92,8.12,35.66,12.64c10.53-8.72,23.7-15.96,22.42-36.19c-0.99-15.62,16.31-26.92,32.31-25.49
			c15.25,1.36,27.22,14.02,27.73,29.31c0.52,15.85-12.5,33.56-27.48,30.59c-24.18-4.8-33.13,12.76-44.92,22.06
			c5.6,12.48,14.09,23.37,14.45,34.53C404.18,279.2,396.08,290.15,391.11,302.46z M354.03,333.32c-21.26,0-42.51,0-66.19,0
			c31.66-35.37,36.63-66.54,17.25-95.07c-17.3-25.45-49.02-35.73-77.68-26.07c-21.72,7.32-47.74,35.94-42.17,59.39
			c11.08-3.74,22.9-5.83,27.38,8.2c5.85,18.33-9.05,21.57-24.77,24.49c8.46,10.45,15.13,18.69,23.75,29.34c-23.51,0-44.9,0-68.82,0
			C184.57,370.39,304.26,371.49,354.03,333.32z"/>
		<path d="M274.64,274.86c0.36,14.24-10.88,25.53-25.32,25.44c-13.55-0.09-24.4-10.67-24.78-24.19
			c-0.38-13.27,10.2-24.7,23.54-25.41C262.45,249.94,274.28,260.7,274.64,274.86z"/>
		<path d="M285.84,224.28c4.73,7.49,9.89,12.08,9.2,15.49c-0.77,3.82-6.49,8.14-10.76,9.1c-2.13,0.48-8.27-6.1-8.2-9.39
			C276.15,235.48,280.86,231.56,285.84,224.28z"/>
	</g>
	<path id="white_00000124150782332814154540000012338491482501659803_" class="st0" d="M354.03,333.32
		c-49.77,38.16-169.46,37.07-211.25,0.28c23.93,0,45.31,0,68.82,0c-8.62-10.65-15.29-18.88-23.75-29.34
		c15.72-2.92,30.62-6.16,24.77-24.49c-4.47-14.02-16.29-11.93-27.38-8.2c-5.57-23.46,20.45-52.07,42.17-59.39
		c28.66-9.66,60.38,0.62,77.68,26.07c19.38,28.52,14.41,59.7-17.25,95.07C311.52,333.32,332.77,333.32,354.03,333.32z
		 M274.64,274.86c-0.36-14.16-12.2-24.92-26.57-24.16c-13.33,0.71-23.92,12.13-23.54,25.41c0.39,13.52,11.23,24.1,24.78,24.19
		C263.77,300.39,275.01,289.1,274.64,274.86z M285.84,224.28c-4.98,7.28-9.69,11.19-9.77,15.2c-0.07,3.29,6.08,9.87,8.2,9.39
		c4.27-0.97,9.99-5.28,10.76-9.1C295.73,236.37,290.58,231.77,285.84,224.28z"/>
</g>
</svg>
