<?xml version="1.0" encoding="utf-8"?>
<!-- Generator: Adobe Illustrator 27.5.0, SVG Export Plug-In . SVG Version: 6.00 Build 0)  -->
<svg version="1.1" id="Layer_1" xmlns="http://www.w3.org/2000/svg" xmlns:xlink="http://www.w3.org/1999/xlink" x="0px" y="0px"
	 viewBox="0 0 500 500" style="enable-background:new 0 0 500 500;" xml:space="preserve">
<style type="text/css">
	.st0{fill:#FFFFFF;}
</style>
<g id="monster_00000018957530996701574750000000797578136769370812_">
	<g id="white_00000134941160087711402470000008658797568571206314_">
		<path class="st0" d="M329.73,104.69c-19.8-0.16-35.93-16.42-36.01-36.31c-0.08-19.7,16.19-36.15,35.95-36.36
			c20.23-0.21,37.56,17.17,37.01,37.13C366.15,88.79,349.45,104.84,329.73,104.69z M332.51,42.15
			c-17.03-1.39-29.85,8.78-29.93,26.21c-0.08,15.99,13.68,28.68,29.68,27.38c16.3-1.33,25.66-13.61,23.9-26.71
			c-8.27-1.35-18.05-0.16-21.65-4.31C330.76,60.39,332.98,50.89,332.51,42.15z"/>
		<path class="st0" d="M180.65,104.61c-19.92-0.28-35.65-16.39-35.61-36.46c0.04-19.86,16.15-36.03,36-36.14
			c20.44-0.12,37.07,16.87,36.57,37.34C217.13,89.07,200.54,104.9,180.65,104.61z M154.4,69.11c1.97,18.03,13.78,28.86,30.8,26.43
			c15.27-2.18,25.33-16.01,23.02-31.66c-2.38-16.07-14.79-23.94-30.08-21.49c0,7.76,2.87,17.77-0.74,21.46
			C173.03,68.32,163.19,67.43,154.4,69.11z"/>
		<path class="st0" d="M209.84,278.2c31.2,0,60.57,0,91.18,0c-9.62,15.92-26.98,16.75-43.41,17.21
			C239.87,295.91,221.96,294.37,209.84,278.2z"/>
	</g>
	<g id="color_00000036945614518049255810000011240202229120309655_">
		<path d="M218.28,127.26c-18.11,1.32-34.96,5.69-50.65,3.07c-35.33-5.9-56.87-41.2-49.12-75.65c7.72-34.27,40.57-55.91,74.71-49.2
			c35.31,6.94,55.57,39.19,51.36,74.92c-4.27,36.25-4.47,72.97-6.51,110.53c12.72,0,22.13,0,30.76,0c0-35,3.18-69.85-0.92-103.82
			c-3.85-31.84,4.62-60.45,31.54-75.03c26.35-14.26,58.71-8.68,78.64,13.57c19.61,21.89,21.51,55.62,4.49,79.77
			c-17.44,24.75-48.54,33.41-78.08,21.72c-2.95-1.17-5.86-2.44-11.66-4.87c0,24.44-0.31,47.3,0.4,70.13
			c0.08,2.74,5.25,6.22,8.75,7.81c21.11,9.57,38.39,22.17,42.99,47.01c0.64,3.48,4.98,6.82,8.34,9.16
			c35.81,24.95,59.65,58.57,76.94,98.48c6.36,14.67,22.6,24.75,31.75,38.62c8.72,13.21,14.42,28.5,20.66,43.21
			c1.27,2.98-0.97,7.46-1.59,11.24c-1.67,0.3-3.34,0.59-5,0.89c-4.6-12.14-9.21-24.28-13.81-36.42c-1.47,0.29-2.94,0.57-4.41,0.86
			c0,9.46,1.45,19.2-0.35,28.31c-2.59,13.09-7.02,25.92-11.85,38.41c-1.29,3.33-6.89,4.99-10.52,7.42
			c0.06-4.17-0.85-8.64,0.35-12.46c3.41-10.86,7.67-21.45,11.6-32.15c-1.79-0.73-3.58-1.45-5.36-2.18
			c-3.95,8.33-7.24,17.1-12.16,24.81c-2.27,3.55-7.76,5.04-11.78,7.47c0.64-4.31,0.89-8.72,2.01-12.9
			c1.48-5.51,3.64-10.85,2.3-17.62c-5.93,6.26-11.86,12.52-17.8,18.79c-2.37-0.84-4.74-1.68-7.12-2.53
			c14.4-15.63,5.91-26.44-2.36-39.05c-11.24-17.13-3.52-35.17,20.23-52.22c-13.12-40.1-37.14-72.21-67.76-93.6
			c-20.36,11.95-38.62,22.44-56.57,33.43c-3.11,1.9-6.99,5.89-7.02,8.96c-0.46,42.61-0.31,85.22-0.31,126.11
			c21.48,0,41.79-3.14,60.39,1.14c11.79,2.72,22.52,15.28,30.93,25.7c6.34,7.87,1.98,16.98-8.54,20.02
			c-30.91,8.95-62.11,9.27-92.8-0.32c-4.7-1.47-10.3-9.91-10.26-15.08c0.26-30.71,2.42-61.4,3.24-92.11
			c0.6-22.64,0.12-45.31,0.12-68.85c-7.64,0-13.81,0-23.43,0c1.85,53.45,4,106.24,5.06,159.05c0.11,5.73-4.89,15.28-9.55,16.78
			c-30.61,9.88-61.86,9.55-92.78,0.69c-13.98-4.01-13.5-14.28-7.73-24.47c9.32-16.48,25.09-24.27,43.06-25.24
			c14.83-0.8,29.84,1.86,45.65,3.05c0-43.08,0-87.8,0-128.87c-20.84-13.66-39.89-26.16-61.64-40.42
			c-31.18,20.8-54.87,53.04-67.83,91.02c7.99,10.15,18.34,17.97,20.65,27.69c2.44,10.28,0.1,24.12-5.43,33.2
			c-6.01,9.87-9.99,16.91-2.44,26.89c1.01,1.34,0.34,3.94,0.45,5.96c-1.27,1.04-2.54,2.08-3.8,3.12c-5.67-6.1-11.34-12.2-17-18.3
			c-1.09,0.29-2.19,0.57-3.28,0.86c1.95,5.76,4.3,11.42,5.71,17.31c0.95,3.96,0.57,8.24,0.78,12.38c-3.67-2.38-8.61-3.96-10.74-7.32
			c-3.7-5.84-5.7-12.75-8.33-19.25c-1.15-2.84-2.09-5.77-3.13-8.66c-2.29,1.62-4.58,3.24-6.86,4.86
			c4.45,11.15,9.13,22.22,13.21,33.51c1.09,3.01,0.36,6.69,0.46,10.06c-3.51-1.3-9.47-1.85-10.14-4.02
			c-5.34-17.33-9.99-34.9-14.11-52.57c-1.26-5.41-0.2-11.37-0.2-17.07c-1.32-0.26-2.64-0.52-3.97-0.78
			c-4.58,12.15-9.16,24.31-13.74,36.46c-1.69-0.51-3.38-1.01-5.07-1.52c-4.71-14.3,0.48-28.22,8.44-39.48
			c10.34-14.63,24-26.89,35.97-40.4c2.72-3.07,4.98-6.87,6.41-10.72c15.36-41.36,40.83-74.84,76.91-100.35
			c3.65-2.58,7.56-6.74,8.52-10.83c5.24-22.31,20.35-35.47,40.2-43.57c9.09-3.71,12.07-8.54,11.76-18.01
			C217.83,164,218.28,144.16,218.28,127.26z M329.73,104.69c19.72,0.16,36.42-15.9,36.96-35.54c0.55-19.96-16.78-37.35-37.01-37.13
			c-19.76,0.21-36.03,16.67-35.95,36.36C293.81,88.26,309.93,104.53,329.73,104.69z M180.65,104.61
			c19.89,0.28,36.48-15.54,36.96-35.26c0.51-20.47-16.12-37.46-36.57-37.34c-19.85,0.11-35.96,16.28-36,36.14
			C145,88.22,160.73,104.33,180.65,104.61z M209.84,278.2c12.12,16.17,30.03,17.7,47.77,17.21c16.43-0.46,33.79-1.29,43.41-17.21
			C270.41,278.2,241.04,278.2,209.84,278.2z"/>
		<path d="M332.51,42.15c0.47,8.75-1.75,18.24,1.99,22.56c3.6,4.16,13.38,2.96,21.65,4.31c1.76,13.11-7.6,25.38-23.9,26.71
			c-16,1.31-29.76-11.39-29.68-27.38C302.66,50.92,315.48,40.76,332.51,42.15z"/>
		<path d="M154.4,69.11c8.8-1.68,18.63-0.79,23-5.26c3.6-3.68,0.74-13.69,0.74-21.46c15.29-2.46,27.7,5.41,30.08,21.49
			c2.32,15.64-7.74,29.48-23.02,31.66C168.17,97.98,156.37,87.15,154.4,69.11z"/>
	</g>
</g>
</svg>
