<?xml version="1.0" encoding="utf-8"?>
<!-- Generator: Adobe Illustrator 27.5.0, SVG Export Plug-In . SVG Version: 6.00 Build 0)  -->
<svg version="1.1" id="Layer_1" xmlns="http://www.w3.org/2000/svg" xmlns:xlink="http://www.w3.org/1999/xlink" x="0px" y="0px"
	 viewBox="0 0 500 500" style="enable-background:new 0 0 500 500;" xml:space="preserve">
<style type="text/css">
	.st0{fill:#FF4713;}
	.st1{fill:#FFFFFF;}
</style>
<g id="monster">
	<g id="color">
		<path class="st0" d="M390.9,309.5c-11.3,7.7-19.1,13-27.3,18.5c4.6,50.6-19.3,88.6-56.4,120.4c9.2,5.4,18.3,9.5,26,15.5
			c4.1,3.2,8.4,10,7.6,14.3c-0.7,3.8-8.1,8.4-12.9,9c-24,3-48.2,6.4-72.4,6.5c-24.2,0.1-48.4-3-72.5-5.9c-5.8-0.7-11-6.4-16.5-9.8
			c3.6-5.5,6.3-12.3,11.2-16.3c6.4-5.2,14.6-8.2,23.2-12.8c-35.9-32-61.2-69.2-56.1-120.5c-8.1-5.6-16.3-11.3-27.8-19.3
			c-1.7,24.9-3.1,47.4-4.6,69.4c33.2,11,39.5,25.2,28.2,57.3c-1.4,4,2.6,9.8,3.8,14.9c0.8,3.4,0.9,7,1.3,10.5
			c-3.1-1.1-6.7-1.7-9.3-3.6c-3.4-2.6-6.1-6.2-9.1-9.4c-1.4,1-2.7,2-4.1,3c3.8,5.6,7.9,11,11.2,16.8c1.2,2.1,0.6,5.4,0.8,8.1
			c-2.8-0.3-6.8,0.4-8.2-1.1c-6.8-7.5-12.8-15.6-19.1-23.5c-1.2,0.7-2.4,1.4-3.6,2.1c3.3,6.7,6.4,13.6,10.2,20.2
			c3.3,5.8,7.3,11.1,8.3,18.3c-25.6-12.6-29.3-38.2-39.2-61.4c-1.7,11.3-3.3,22.6-5,33.9c-1.4,0.2-2.7,0.4-4.1,0.6
			c-1.4-3.6-3.7-7.1-4-10.8c-2.5-24.5,10.8-44.2,20-65.2c2.6-5.9,5.6-12,6.3-18.3c2.8-25.7,4.8-51.5,7-77.2
			c0.3-3.6,1.4-7.5,0.6-10.9c-7.6-30.6-1.7-59.9,9-88.4c3.2-8.6,2.3-14-3.6-21c-8.1-9.6-15.3-20.3-20.7-31.6
			c-15.5-32.5-12.1-63.6,11-91.8c16.2-19.8,36.5-34.4,59.7-44.5c1,1,1.9,2,2.9,3c-4.1,4.1-8.2,8.1-12.1,12.3
			c-9.3,10.1-19.5,19.5-27.4,30.6c-24.3,34.4-18.8,64.7,16,91.2c29.1-38,62-71.5,114.3-71.8c52.6-0.3,85.7,33,115.1,71.1
			c31.3-19.8,40.4-50.6,22.1-81.2c-8.8-14.7-21.5-27.1-33.2-39.9c-3.7-4.1-9.7-6.1-12.7-11c53.6,5.6,95,70.6,79.6,119.4
			c-2.4,7.5-4.5,16.3-9.7,21.4c-22.5,22-21.3,45.3-12.1,73.4c5.7,17.5,1.3,38.3,1.4,57.7c0,4.7-0.5,9.5,0,14.1
			c1.1,10,3.8,19.9,3.8,29.8c-0.2,34.4,6.8,66.5,24.1,96.9c10,17.4,7.5,32.8-2.9,44.9c-1.8-13.6-3.3-24.8-4.8-35.9
			c-1.2-0.1-2.4-0.3-3.5-0.5c-2.6,9.1-4.1,18.6-8,27.1c-5,10.9-11.6,21.1-18.4,31c-1.5,2.1-6.8,1.6-10.3,2.3
			c0.8-3.1,0.9-6.7,2.5-9.4c5.6-9.5,11.7-18.6,15.8-29.1c-13.2,4.5-13.3,24.7-33.8,24c6.3-10.3,11.1-18,15.9-25.7
			c-1.4-1-2.8-2-4.2-3.1c-3.1,3.5-5.9,7.6-9.6,10.4c-2.4,1.7-6.2,1.5-9.4,2.1c0.3-2.8-0.5-6.7,1-8.1c8.1-7.5,6.3-14.5,2.2-23.8
			c-9.8-22.1,1.7-40.7,30.8-50C393.6,356.9,392.3,334.6,390.9,309.5z"/>
		<path class="st0" d="M254.6,283.6c45.5-0.2,82.6-37.3,82.6-82.7c0-46.2-37.5-83.6-83.7-83.4c-45.5,0.2-82.3,37.1-82.4,82.8
			C170.9,246.8,208,283.8,254.6,283.6z"/>
		<path class="st0" d="M297.5,193c3.9,22.3-4.7,39.8-24.2,48.9c-18.2,8.5-40.3,3.9-53.5-11.1c-13.1-14.9-14.9-37.6-4.3-54.5
			c11.3-17.9,30.2-24.5,51.7-17.9c-14.8,16-16.9,27.1-6.9,37.6C270.2,206.6,280.6,205.7,297.5,193z"/>
		<path class="st0" d="M253.1,214.3c-7.6-5.1-12.3-10.7-16-10.1c-4,0.6-9,6.7-9.8,11.1c-0.5,2.6,6.3,9.3,9.8,9.2
			C241.3,224.6,245.5,219.5,253.1,214.3z"/>
	</g>
	<g id="white">
		<path class="st1" d="M254.6,283.6c-46.6,0.2-83.7-36.8-83.5-83.2c0.2-45.7,36.9-82.6,82.4-82.8c46.2-0.2,83.7,37.2,83.7,83.4
			C337.2,246.4,300.2,283.4,254.6,283.6z M297.5,193c-16.9,12.7-27.3,13.6-37.2,3.1c-10-10.5-7.9-21.6,6.9-37.6
			c-21.5-6.6-40.4,0-51.6,17.9c-10.6,16.9-8.8,39.7,4.3,54.5c13.2,15,35.3,19.5,53.5,11.1C292.8,232.8,301.4,215.3,297.5,193z"/>
		<path class="st1" d="M253.1,214.3c-7.6,5.1-11.8,10.2-16.1,10.3c-3.5,0-10.3-6.6-9.8-9.2c0.8-4.4,5.8-10.5,9.8-11.1
			C240.8,203.7,245.5,209.2,253.1,214.3z"/>
	</g>
</g>
</svg>
