<?xml version="1.0" encoding="utf-8"?>
<!-- Generator: Adobe Illustrator 27.5.0, SVG Export Plug-In . SVG Version: 6.00 Build 0)  -->
<svg version="1.1" id="Layer_1" xmlns="http://www.w3.org/2000/svg" xmlns:xlink="http://www.w3.org/1999/xlink" x="0px" y="0px"
	 viewBox="0 0 500 500" style="enable-background:new 0 0 500 500;" xml:space="preserve">
<style type="text/css">
	.st0{fill:#FFFFFF;}
</style>
<g id="monster_00000133488780327262068130000007591385127630777786_">
	<path id="white_00000163048125546312776610000004733432443514399362_" class="st0" d="M249.64,176.08
		c18.96,0.23,35.21,16.84,34.86,35.6c-0.36,19.15-16.53,34.85-35.72,34.7c-19.26-0.15-34.84-16.16-34.58-35.54
		C214.45,191.45,230.36,175.84,249.64,176.08z M251.67,196.43c-11.64,0.26-18.52,5.77-16.78,15.54c0.96,5.38,7.88,12.45,13.27,13.68
		c8.76,1.99,14.88-3.92,15.43-13.9C249.32,211.44,248.49,210.46,251.67,196.43z"/>
	<g id="color_00000109021628501694607670000002639071182778655417_">
		<path d="M155.19,236.64c-15.86-18.77-14.44-30.44,4.49-45.34c2.04-1.61,3.17-4.76,4-7.43c0.78-2.5-0.42-6.19,1.01-7.84
			c11.97-13.79,2.55-25.77-3.13-37.73c-7.63-16.04-16.08-31.69-24.77-48.67c-13.15,10.29-24.14,18.89-35.12,27.49
			c-1.02-0.92-2.05-1.84-3.07-2.76c4.67-17.95,12.31-34.85,27.74-46.18c9.58-7.03,20.93-2.46,27.9,5.73
			c10.95,12.86,20.79,26.82,29.75,41.16c6.56,10.49,10.94,22.34,19.92,34.32c0.93-4.54,4-10.07,2.44-13.46
			c-8.78-19.11-18.04-38.06-28.37-56.37c-9.61-17.03-22.77-31.05-41.03-39.5c-2.64-1.22-4.8-3.46-7.84-5.72
			c11.15-8.77,23.25-7.39,32.27-1.61c15.17,9.73,31.25,20.36,41.76,34.47c14.75,19.79,24.76,43.12,35.54,62.66
			c-0.48-10.45-0.4-24.72-1.99-38.81c-1.65-14.63-3.44-29.56-7.89-43.48c-4.41-13.8-12.2-26.52-20.25-43.34
			c8.32,2.7,16.05,2.87,19.61,6.81c10.63,11.73,23.86,23.62,28.29,37.87c7.18,23.1,8.22,48.11,11.69,72.34
			c0.48,3.36,0.07,6.85,2.53,11.23c1.28-2.67,2.88-5.25,3.81-8.04c9.15-27.5,21.45-53.5,41.64-74.51c8.42-8.77,19.46-15.81,30.55-21
			c9.33-4.36,20.16-3.57,29.58,6.35c-3.41,1.69-6.05,2.7-8.37,4.2c-7.78,5.01-18.24,8.48-22.66,15.63
			c-17.2,27.86-32.48,56.92-48.47,85.53c1.79,1.1,3.58,2.21,5.37,3.31c1.74-2.77,3.67-5.44,5.19-8.32
			c9-17.01,17.14-34.54,27.17-50.91c5.24-8.56,12.9-16.24,20.97-22.32c12-9.04,24.39-6.52,32.42,6.02
			c7.53,11.76,13.72,24.36,20.5,36.6c-1.57,1.3-3.15,2.6-4.72,3.9c-10.87-8.37-21.73-16.75-33.62-25.91
			c-20.27,24.76-28.82,55.22-41.57,81.18c10.32,13.53,20.82,25.19,28.82,38.38c7.22,11.9,0.86,22.32-9.04,30.3
			c15.38,17.07,15.3,25.05,2.4,43.9c-2.34,3.43-1.58,10.69,0.33,15.06c21.03,48.23,34.19,98.23,33.4,151.11
			c-0.18,12.3-2.91,25.01-7.07,36.61c-2.15,5.99-9.61,13.04-15.41,13.77c-4.23,0.54-11.67-7.61-14.14-13.4
			c-4.87-11.42-7.27-23.9-10.8-36.3c-0.05-0.01-1.16-0.59-1.67-0.26c-6.7,4.37-13.83,11.24-21.02,2.23
			c-7.51-9.4-0.17-16.19,7.07-20.91c11.97-7.81,13.59-17.77,11.14-31.08c-5.8-31.59-10.24-63.44-15.13-94.56
			c-2.47-0.37-2.95-0.58-3.35-0.48c-26.37,6.64-26.38,6.64-26.39,33.88c-0.01,44.34,0,88.69,0,133.64
			c9.55,1.26,18.48,1.6,26.89,3.84c5.8,1.55,11.69,4.88,16.09,8.98c5.45,5.07,4.72,12.05-3.49,12.48
			c-19.53,1.03-39.17,0.94-58.71,0.06c-8.12-0.37-8.56-6.15-4.27-12.57c2.11-3.15,4.61-6.95,4.63-10.46
			c0.3-51.98,0.2-103.96,0.2-156.91c-9.43,0-18.1,0-28.34,0c-0.28,5.34-0.73,10.07-0.74,14.8c-0.06,44.85-0.21,89.71,0.14,134.56
			c0.05,6.84,3.07,13.63,3.65,20.53c0.26,3.08-1.49,8.75-3.34,9.22c-22.79,5.71-45.49,6.15-68.23-1.67
			c6.14-17.29,15.3-21.19,47.83-21.69c0.31-3.36,0.91-6.81,0.91-10.26c0.07-45.3-0.16-90.6,0.25-135.9
			c0.08-8.71-2.3-12.5-11.21-14.36c-9.94-2.07-19.35-6.69-30.98-10.92c-4.09,23.85-8.23,47.49-12.15,71.16
			c-1.39,8.4-1.39,17.12-3.58,25.28c-3.61,13.43,0.03,22.96,11.55,30.73c6.56,4.42,14.17,10.55,7.27,19.81
			c-7.45,9.98-14.92,3.24-23.17-2.78c-2.49,9.97-4.53,19.26-7.2,28.37c-1.5,5.12-3.49,10.26-6.21,14.83
			c-7.42,12.49-19.73,13.27-24.01-0.12c-6-18.79-10.9-39.23-10-58.67c2.26-48.71,14.34-95.61,36.05-139.66
			c2.98-6.03,5.53-10.75,0.16-17.95C140.82,257.66,143.89,249.24,155.19,236.64z M249.64,176.08
			c-19.27-0.24-35.19,15.37-35.44,34.76c-0.25,19.38,15.32,35.39,34.58,35.54c19.19,0.15,35.35-15.55,35.72-34.7
			C284.85,192.92,268.59,176.31,249.64,176.08z"/>
		<path d="M251.67,196.43c-3.18,14.03-2.35,15.01,11.92,15.31c-0.54,9.98-6.67,15.89-15.43,13.9c-5.39-1.22-12.32-8.29-13.27-13.68
			C233.15,202.2,240.03,196.69,251.67,196.43z"/>
	</g>
</g>
</svg>
